<svg width="584" height="475" viewBox="0 0 584 475" fill="none" xmlns="http://www.w3.org/2000/svg">
<path d="M277.166 504.001C412.558 504.001 522.314 394.604 522.314 259.656C522.314 124.708 412.558 15.3105 277.166 15.3105C141.775 15.3105 32.0186 124.708 32.0186 259.656C32.0186 394.604 141.775 504.001 277.166 504.001Z" fill="white"/>
<path d="M277.166 503.999C412.558 503.999 522.314 394.602 522.314 259.654C522.314 124.706 412.558 15.3086 277.166 15.3086C141.775 15.3086 32.0186 124.706 32.0186 259.654C32.0186 394.602 141.775 503.999 277.166 503.999Z" fill="#016273" fill-opacity="0.2"/>
<path d="M522.314 473.441H32.0107" stroke="#113464" stroke-width="5" stroke-linecap="round" stroke-linejoin="round"/>
<path d="M124.31 157.545C129.307 170.831 139.832 181.325 153.156 186.31C139.833 191.294 129.307 201.788 124.31 215.073C119.312 201.787 108.786 191.294 95.4619 186.31C108.786 181.325 119.312 170.831 124.31 157.545Z" fill="white" stroke="#26A851" stroke-width="3"/>
<path d="M189.376 148.58C192.643 156.274 198.795 162.409 206.51 165.668C198.795 168.927 192.643 175.06 189.376 182.754C186.108 175.06 179.957 168.927 172.242 165.668C179.957 162.409 186.108 156.274 189.376 148.58Z" fill="white" stroke="#26A851" stroke-width="3"/>
<path d="M90.5537 186.929C107.02 191.347 119.877 204.162 124.31 220.574C128.742 204.162 141.599 191.347 158.066 186.929C141.599 182.511 128.742 169.696 124.31 153.283C119.877 169.696 107.02 182.511 90.5537 186.929Z" stroke="#26A851" stroke-width="3" stroke-linecap="round" stroke-linejoin="round"/>
<path d="M167.638 166.291C178.241 169.134 186.524 177.39 189.377 187.958C192.229 177.39 200.512 169.134 211.115 166.291C200.512 163.448 192.229 155.192 189.377 144.623C186.524 155.192 178.241 163.448 167.638 166.291Z" stroke="#26A851" stroke-width="3" stroke-linecap="round" stroke-linejoin="round"/>
<g clip-path="url(#clip0_3513_10618)">
<path d="M191.983 326.771H14.7533C7.58471 326.771 1.77344 332.576 1.77344 339.737V459.66C1.77344 466.821 7.58471 472.626 14.7533 472.626H191.983C199.152 472.626 204.963 466.821 204.963 459.66V339.737C204.963 332.576 199.152 326.771 191.983 326.771Z" fill="white"/>
<path d="M1.77344 340.393V459.665C1.77344 459.864 1.77787 460.059 1.78674 460.254H5.86206L198.209 340.393H1.77344Z" fill="white"/>
<path d="M5.86328 460.249H204.946C204.955 460.054 204.96 459.859 204.96 459.66V340.393H198.21L5.86328 460.249Z" fill="url(#paint0_linear_3513_10618)"/>
<path d="M1.78711 460.248C2.09309 467.136 7.78258 472.624 14.7536 472.624H191.984C198.955 472.624 204.64 467.136 204.946 460.248H1.78711Z" fill="#C5C9CC"/>
<path d="M204.963 339.737C204.963 332.579 199.154 326.771 191.983 326.771H14.7533C7.58709 326.771 1.77344 332.574 1.77344 339.737V340.393H204.963V339.737Z" fill="white"/>
<path d="M71.4273 451.901C100.288 451.901 123.684 428.531 123.684 399.703C123.684 370.874 100.288 347.504 71.4273 347.504C42.5669 347.504 19.1709 370.874 19.1709 399.703C19.1709 428.531 42.5669 451.901 71.4273 451.901Z" fill="#26A851"/>
<path d="M192.76 440.9C192.76 445.618 188.929 449.445 184.206 449.445H146.083C141.36 449.445 137.528 445.618 137.528 440.9" fill="url(#paint1_linear_3513_10618)"/>
<path d="M192.76 440.9C192.76 445.618 188.929 449.445 184.206 449.445H146.083C141.36 449.445 137.528 445.618 137.528 440.9" stroke="#113464" stroke-width="4" stroke-linecap="round" stroke-linejoin="round"/>
<path d="M192.76 422.707C192.76 427.425 188.929 431.252 184.206 431.252H146.083C141.36 431.252 137.528 427.425 137.528 422.707" fill="url(#paint2_linear_3513_10618)"/>
<path d="M192.76 422.707C192.76 427.425 188.929 431.252 184.206 431.252H146.083C141.36 431.252 137.528 427.425 137.528 422.707" stroke="#113464" stroke-width="4" stroke-linecap="round" stroke-linejoin="round"/>
<path d="M192.76 404.52C192.76 409.237 188.929 413.064 184.206 413.064H146.083C141.36 413.064 137.528 409.237 137.528 404.52" fill="url(#paint3_linear_3513_10618)"/>
<path d="M192.76 404.52C192.76 409.237 188.929 413.064 184.206 413.064H146.083C141.36 413.064 137.528 409.237 137.528 404.52" stroke="#113464" stroke-width="4" stroke-linecap="round" stroke-linejoin="round"/>
<path d="M192.76 386.334C192.76 391.052 188.929 394.879 184.206 394.879H146.083C141.36 394.879 137.528 391.052 137.528 386.334" fill="url(#paint4_linear_3513_10618)"/>
<path d="M192.76 386.334C192.76 391.052 188.929 394.879 184.206 394.879H146.083C141.36 394.879 137.528 391.052 137.528 386.334" stroke="#113464" stroke-width="4" stroke-linecap="round" stroke-linejoin="round"/>
<path d="M192.76 368.145C192.76 372.862 188.929 376.689 184.206 376.689H146.083C141.36 376.689 137.528 372.862 137.528 368.145" fill="url(#paint5_linear_3513_10618)"/>
<path d="M192.76 368.145C192.76 372.862 188.929 376.689 184.206 376.689H146.083C141.36 376.689 137.528 372.862 137.528 368.145" stroke="#113464" stroke-width="4" stroke-linecap="round" stroke-linejoin="round"/>
<path d="M192.76 349.957C192.76 354.675 188.929 358.502 184.206 358.502H146.083C141.36 358.502 137.528 354.675 137.528 349.957" fill="url(#paint6_linear_3513_10618)"/>
<path d="M192.76 349.957C192.76 354.675 188.929 358.502 184.206 358.502H146.083C141.36 358.502 137.528 354.675 137.528 349.957" stroke="#113464" stroke-width="4" stroke-linecap="round" stroke-linejoin="round"/>
<path d="M83.0855 386.947C86.979 380.019 95.1074 373.53 106.509 366.952C102.925 363.125 98.726 359.887 94.0653 357.393C82.6642 365.831 74.5401 374.358 70.6422 382.447C68.8418 375.054 69.4316 365.858 75.365 351.896C74.0656 351.789 72.753 351.736 71.4271 351.736C67.201 351.736 63.0991 352.286 59.1967 353.309C55.2367 369.247 56.0438 379.842 58.6601 388.055C51.7245 384.166 45.228 376.046 38.6427 364.658C34.8113 368.237 31.5697 372.432 29.073 377.087C37.5208 388.476 46.0572 396.591 54.1547 400.484C46.7535 402.283 37.5474 401.694 23.5698 395.767C23.4634 397.065 23.4102 398.376 23.4102 399.7C23.4102 403.922 23.96 408.019 24.9844 411.917C40.9398 415.873 51.5472 415.067 59.7688 412.453C55.8753 419.381 47.7468 425.87 36.3456 432.448C39.9287 436.276 44.1282 439.514 48.7889 442.008C60.19 433.569 68.3141 425.042 72.212 416.954C74.0124 424.347 73.4226 433.543 67.4893 447.505C68.7886 447.611 70.1012 447.664 71.4271 447.664C75.6532 447.664 79.7551 447.115 83.6575 446.092C87.6175 430.154 86.8105 419.558 84.1941 411.346C91.1297 415.235 97.6262 423.354 104.211 434.743C108.043 431.164 111.285 426.969 113.781 422.313C105.333 410.925 96.797 402.81 88.6996 398.916C96.1008 397.118 105.307 397.707 119.284 403.634C119.391 402.336 119.444 401.025 119.444 399.7C119.444 395.479 118.894 391.381 117.87 387.483C101.914 383.528 91.3071 384.334 83.0855 386.947Z" fill="white"/>
<path d="M191.983 326.771H14.7533C7.58471 326.771 1.77344 332.576 1.77344 339.737V459.66C1.77344 466.821 7.58471 472.626 14.7533 472.626H191.983C199.152 472.626 204.963 466.821 204.963 459.66V339.737C204.963 332.576 199.152 326.771 191.983 326.771Z" stroke="#113464" stroke-width="4" stroke-linecap="round" stroke-linejoin="round"/>
<path d="M64.9521 342.857V456.548" stroke="#113464" stroke-width="4" stroke-linecap="round" stroke-linejoin="round"/>
<path d="M103.807 350.178V449.22" stroke="#113464" stroke-width="4" stroke-linecap="round" stroke-linejoin="round"/>
<path d="M51.999 342.857V456.548" stroke="#113464" stroke-width="4" stroke-linecap="round" stroke-linejoin="round"/>
<path d="M90.8545 342.857V456.548" stroke="#113464" stroke-width="4" stroke-linecap="round" stroke-linejoin="round"/>
<path d="M39.0459 350.178V449.22" stroke="#113464" stroke-width="4" stroke-linecap="round" stroke-linejoin="round"/>
<path d="M77.9014 342.857V456.548" stroke="#113464" stroke-width="4" stroke-linecap="round" stroke-linejoin="round"/>
<path d="M26.0928 357.5V441.898" stroke="#113464" stroke-width="4" stroke-linecap="round" stroke-linejoin="round"/>
<path d="M116.761 357.5V441.898" stroke="#113464" stroke-width="4" stroke-linecap="round" stroke-linejoin="round"/>
<path d="M265.336 409.478H243.473V395.552C243.473 388.969 238.112 383.61 231.518 383.61H214.046V361.771H231.518C250.165 361.771 265.336 376.925 265.336 395.552V409.478Z" fill="#C5C9CC"/>
<path d="M254.404 409.478V395.852C254.404 382.851 243.85 372.309 230.835 372.309L214.046 373.075V383.609H231.518C238.112 383.609 243.473 388.964 243.473 395.551V409.478H254.404Z" fill="white"/>
<path d="M214.046 361.771H231.518C250.165 361.771 265.336 376.925 265.336 395.552V409.478H243.473V395.552C243.473 388.969 238.112 383.61 231.518 383.61H214.046" stroke="#113464" stroke-width="4" stroke-linecap="round" stroke-linejoin="round"/>
<path d="M268.226 409.477H240.581V418.004H268.226V409.477Z" fill="#C5C9CC"/>
<path d="M254.403 409.477H240.581V418.004H254.403V409.477Z" fill="white"/>
<path d="M268.226 409.477H240.581V418.004H268.226V409.477Z" stroke="#113464" stroke-width="4" stroke-linecap="round" stroke-linejoin="round"/>
<path d="M205.056 386.116L205.508 358.502H214.044V386.116H205.056Z" fill="#C5C9CC"/>
<path d="M214.046 372.309V358.502H205.509V372.309H214.046Z" fill="white"/>
<path d="M205.056 386.116L204.963 358.502H214.045V386.116H205.056Z" stroke="#113464" stroke-width="4" stroke-linecap="round" stroke-linejoin="round"/>
<path d="M254.931 426.537H243.215V489.23H254.931V426.537Z" fill="#C5C9CC"/>
<path d="M264.954 426.537H254.932V489.23H264.954V426.537Z" fill="white"/>
<path d="M264.953 489.23H254.931H243.215V426.537H254.931H264.953V489.23Z" stroke="#113464" stroke-width="4" stroke-linecap="round" stroke-linejoin="round"/>
<path d="M240.582 426.537H268.227V418.01H240.582V426.537Z" fill="#C5C9CC"/>
<path d="M254.404 426.537H268.227V418.01H254.404V426.537Z" fill="white"/>
<path d="M240.582 426.537H268.227V418.01H240.582V426.537Z" stroke="#113464" stroke-width="4" stroke-linecap="round" stroke-linejoin="round"/>
</g>
<path d="M387.765 112.029L232.787 252.185V443.503H542.733V252.185L387.765 112.029Z" fill="#EFF1F3"/>
<path d="M387.765 141.356L542.733 281.502V252.185L387.765 112.029L232.787 252.185V281.502L387.765 141.356Z" fill="#C5C9CC"/>
<path d="M560.613 269.064L386.978 112.031L213.333 269.064L201 255.505L386.978 87.3281L572.955 255.505L560.613 269.064Z" fill="white"/>
<path d="M232 252.188V443.506H541.956V252.188" stroke="#113464" stroke-width="5" stroke-linecap="round" stroke-linejoin="round"/>
<path d="M560.613 269.064L386.978 112.031L213.333 269.064L201 255.505L386.978 87.3281L572.955 255.505L560.613 269.064Z" stroke="#113464" stroke-width="5" stroke-linecap="round" stroke-linejoin="round"/>
<path d="M535.483 443.506H238.471V473.55H535.483V443.506Z" fill="#C5C9CC"/>
<path d="M535.483 443.506H238.471V473.55H535.483V443.506Z" stroke="#113464" stroke-width="5" stroke-linecap="round" stroke-linejoin="round"/>
<path d="M364.813 278.949H276.996V376.749H364.813V278.949Z" fill="#016273" fill-opacity="0.2"/>
<path d="M368.901 376.752H272.908V384.803H368.901V376.752Z" fill="#EFF1F3"/>
<path d="M355.002 366.98H286.797V288.728H355.002M364.804 278.949H276.986V376.749H364.804V278.949Z" fill="white"/>
<path d="M272.908 384.803V376.752H368.901V384.803" stroke="#113464" stroke-width="5" stroke-linecap="round" stroke-linejoin="round"/>
<path d="M290.118 366.981H318.813L355.003 330.555V301.689L290.118 366.981Z" fill="#016273" fill-opacity="0.2"/>
<path d="M276.996 309.887H364.804" stroke="#113464" stroke-width="5" stroke-linecap="round" stroke-linejoin="round"/>
<path d="M364.804 278.949H276.986V376.749H364.804V278.949Z" stroke="#113464" stroke-width="5" stroke-linecap="round" stroke-linejoin="round"/>
<path d="M320.9 278.949V309.887" stroke="#113464" stroke-width="5" stroke-linecap="round" stroke-linejoin="round"/>
<path d="M498.535 278.949H410.718V376.749H498.535V278.949Z" fill="#016273" fill-opacity="0.2"/>
<path d="M502.623 376.752H406.63V384.803H502.623V376.752Z" fill="#EFF1F3"/>
<path d="M488.723 366.98H420.518V288.728H488.723M498.524 278.949H410.707V376.749H498.524V278.949Z" fill="white"/>
<path d="M406.63 384.803V376.752H502.613V384.803" stroke="#113464" stroke-width="5" stroke-linecap="round" stroke-linejoin="round"/>
<path d="M423.838 366.981H452.532L488.723 330.555V301.689L423.838 366.981Z" fill="#016273" fill-opacity="0.2"/>
<path d="M410.718 309.887H498.525" stroke="#113464" stroke-width="5" stroke-linecap="round" stroke-linejoin="round"/>
<path d="M498.524 278.949H410.707V376.749H498.524V278.949Z" stroke="#113464" stroke-width="5" stroke-linecap="round" stroke-linejoin="round"/>
<path d="M454.621 278.949V309.887" stroke="#113464" stroke-width="5" stroke-linecap="round" stroke-linejoin="round"/>
<defs>
<linearGradient id="paint0_linear_3513_10618" x1="5.86328" y1="400.321" x2="204.964" y2="400.321" gradientUnits="userSpaceOnUse">
<stop stop-color="#EFF1F3"/>
<stop offset="1" stop-color="white"/>
</linearGradient>
<linearGradient id="paint1_linear_3513_10618" x1="137.528" y1="445.171" x2="192.76" y2="445.171" gradientUnits="userSpaceOnUse">
<stop stop-color="#EFF1F3"/>
<stop offset="1" stop-color="#C5C9CC"/>
</linearGradient>
<linearGradient id="paint2_linear_3513_10618" x1="0.000661131" y1="426.982" x2="0.444113" y2="426.982" gradientUnits="userSpaceOnUse">
<stop stop-color="#EFF1F3"/>
<stop offset="1" stop-color="#C5C9CC"/>
</linearGradient>
<linearGradient id="paint3_linear_3513_10618" x1="0.000661131" y1="408.794" x2="0.444113" y2="408.794" gradientUnits="userSpaceOnUse">
<stop stop-color="#EFF1F3"/>
<stop offset="1" stop-color="#C5C9CC"/>
</linearGradient>
<linearGradient id="paint4_linear_3513_10618" x1="0.000661131" y1="390.609" x2="0.444113" y2="390.609" gradientUnits="userSpaceOnUse">
<stop stop-color="#EFF1F3"/>
<stop offset="1" stop-color="#C5C9CC"/>
</linearGradient>
<linearGradient id="paint5_linear_3513_10618" x1="0.000661131" y1="372.415" x2="0.444113" y2="372.415" gradientUnits="userSpaceOnUse">
<stop stop-color="#EFF1F3"/>
<stop offset="1" stop-color="#C5C9CC"/>
</linearGradient>
<linearGradient id="paint6_linear_3513_10618" x1="0.000661131" y1="354.227" x2="0.444113" y2="354.227" gradientUnits="userSpaceOnUse">
<stop stop-color="#EFF1F3"/>
<stop offset="1" stop-color="#C5C9CC"/>
</linearGradient>
<clipPath id="clip0_3513_10618">
<rect width="270" height="166" fill="white" transform="translate(0 325)"/>
</clipPath>
</defs>
</svg>
