<svg width="220" height="200" viewBox="0 0 220 200" fill="none" xmlns="http://www.w3.org/2000/svg">
<g clip-path="url(#clip0_3413_7687)">
<path d="M165.773 144.572C198.461 111.937 198.461 59.0244 165.773 26.3891C133.086 -6.24612 80.0896 -6.24614 47.4023 26.3891C14.7151 59.0244 14.7151 111.937 47.4023 144.572C80.0896 177.207 133.086 177.207 165.773 144.572Z" fill="#016273" fill-opacity="0.25"/>
<path d="M195.979 63.3789H210.04V100.132H157.45" fill="white"/>
<path d="M195.979 63.3789H210.04V100.132H157.45" stroke="#004990" stroke-width="2" stroke-linecap="round" stroke-linejoin="round"/>
<path d="M134.663 30.5651V11.752H180.241V30.5651" fill="white"/>
<path d="M134.663 30.5651V11.752H180.241V30.5651" stroke="#004990" stroke-width="2" stroke-linecap="round" stroke-linejoin="round"/>
<path d="M187.253 2.12109V8.24528C187.253 10.1775 185.682 11.746 183.747 11.746H131.157C129.221 11.746 127.65 10.1775 127.65 8.24528V2.12109" fill="#26A851"/>
<path d="M187.253 2.12109V8.24528C187.253 10.1775 185.682 11.746 183.747 11.746H131.157C129.221 11.746 127.65 10.1775 127.65 8.24528V2.12109" stroke="#004990" stroke-width="2" stroke-linecap="round" stroke-linejoin="round"/>
<path d="M157.45 100.132C178.748 100.132 196.015 82.8934 196.015 61.6285C196.015 40.3636 178.748 23.125 157.45 23.125C136.151 23.125 118.885 40.3636 118.885 61.6285C118.885 82.8934 136.151 100.132 157.45 100.132Z" fill="white" stroke="#004990" stroke-width="2" stroke-linecap="round" stroke-linejoin="round"/>
<path d="M186.45 68.4604C190.23 52.4683 180.31 36.4444 164.292 32.6699C148.275 28.8954 132.225 38.7998 128.445 54.7918C124.664 70.7839 134.584 86.8079 150.602 90.5823C166.62 94.3568 182.669 84.4525 186.45 68.4604Z" fill="#C5C9CC" stroke="#004990" stroke-width="2" stroke-linecap="round" stroke-linejoin="round"/>
<path d="M157.45 56.3798C157.45 48.5659 164.353 39.0259 175.593 38.0234" stroke="#004990" stroke-width="2" stroke-linecap="round" stroke-linejoin="round"/>
<path d="M152.9 59.0052C146.122 55.0962 141.3 44.3597 146.049 34.1406" stroke="#004990" stroke-width="2" stroke-linecap="round" stroke-linejoin="round"/>
<path d="M152.9 64.2543C146.122 68.1633 134.396 66.9627 127.906 57.7461" stroke="#004990" stroke-width="2" stroke-linecap="round" stroke-linejoin="round"/>
<path d="M157.45 66.8809C157.45 74.6947 150.547 84.2347 139.308 85.2372" stroke="#004990" stroke-width="2" stroke-linecap="round" stroke-linejoin="round"/>
<path d="M162.005 64.2539C168.783 68.1629 173.605 78.8994 168.855 89.1185" stroke="#004990" stroke-width="2" stroke-linecap="round" stroke-linejoin="round"/>
<path d="M162.005 59.0064C168.783 55.0974 180.508 56.298 186.998 65.5146" stroke="#004990" stroke-width="2" stroke-linecap="round" stroke-linejoin="round"/>
<path d="M157.45 69.0275C161.542 69.0275 164.86 65.7155 164.86 61.6299C164.86 57.5444 161.542 54.2324 157.45 54.2324C153.358 54.2324 150.041 57.5444 150.041 61.6299C150.041 65.7155 153.358 69.0275 157.45 69.0275Z" fill="white" stroke="#004990" stroke-width="2" stroke-linecap="round" stroke-linejoin="round"/>
<path d="M218.806 105.384H213.546C211.611 105.384 210.04 103.816 210.04 101.883V61.6296C210.04 59.6973 211.611 58.1289 213.546 58.1289H218.806" fill="#26A851"/>
<path d="M218.806 105.384H213.546C211.611 105.384 210.04 103.816 210.04 101.883V61.6296C210.04 59.6973 211.611 58.1289 213.546 58.1289H218.806" stroke="#004990" stroke-width="2" stroke-linecap="round" stroke-linejoin="round"/>
<path d="M147.45 177.048L141.101 170.709C143.016 167.528 144.413 164.124 145.288 160.62H154.268C155.511 160.62 156.519 159.613 156.519 158.372V144.895C156.519 143.654 155.511 142.647 154.268 142.647H145.288C144.413 139.139 143.016 135.735 141.101 132.558L147.45 126.219C148.328 125.342 148.328 123.919 147.45 123.042L137.903 113.51C137.024 112.633 135.599 112.633 134.72 113.51L128.372 119.848C125.185 117.936 121.78 116.542 118.266 115.669V106.703C118.266 105.462 117.258 104.455 116.015 104.455H102.516C101.273 104.455 100.265 105.462 100.265 106.703V115.669C96.7505 116.542 93.3414 117.936 90.159 119.848L83.8105 113.51C82.9319 112.633 81.5067 112.633 80.6281 113.51L71.081 123.042C70.2025 123.919 70.2025 125.342 71.081 126.219L77.4296 132.558C75.5145 135.739 74.1176 139.139 73.2431 142.647H64.2629C63.0199 142.647 62.0117 143.654 62.0117 144.895V158.372C62.0117 159.613 63.0199 160.62 64.2629 160.62H73.2431C74.1176 164.128 75.5145 167.532 77.4296 170.709L71.081 177.048C70.2025 177.925 70.2025 179.348 71.081 180.225L80.6281 189.757C81.5067 190.634 82.9319 190.634 83.8105 189.757L90.159 183.419C93.3454 185.331 96.7545 186.725 100.265 187.598V196.564C100.265 197.805 101.273 198.812 102.516 198.812H116.015C117.258 198.812 118.266 197.805 118.266 196.564V187.598C121.78 186.725 125.189 185.331 128.372 183.419L134.72 189.757C135.599 190.634 137.024 190.634 137.903 189.757L147.45 180.225C148.328 179.348 148.328 177.925 147.45 177.048Z" fill="#26A851" stroke="#004990" stroke-width="2" stroke-linecap="round" stroke-linejoin="round"/>
<path d="M131.072 142.566L116.423 157.191C115.545 158.068 114.12 158.068 113.241 157.191L103.694 147.659C102.815 146.782 102.815 145.359 103.694 144.482L118.343 129.857C109.771 126.299 99.5277 127.989 92.5557 134.95C85.5836 141.911 83.8872 152.138 87.4542 160.696L68.9066 179.214C65.5177 182.597 65.1169 188.107 68.279 191.705C71.7448 195.646 77.7613 195.792 81.4174 192.141L100.18 173.409C108.751 176.966 118.994 175.277 125.966 168.316C132.938 161.355 134.635 151.128 131.068 142.57L131.072 142.566Z" fill="white" stroke="#004990" stroke-width="2" stroke-linecap="round" stroke-linejoin="round"/>
<path d="M73.4463 85.4988C88.398 70.5921 88.398 46.4235 73.4462 31.5168C58.4945 16.6101 34.2529 16.61 19.3011 31.5168C4.34932 46.4235 4.34932 70.5921 19.3011 85.4988C34.2529 100.406 58.4945 100.406 73.4463 85.4988Z" fill="white"/>
<path d="M53.4173 38.0312L33.4619 60.8871L43.8362 61.1519L39.0285 79.5136L60.1841 56.8606L48.413 57.0704L53.4173 38.0312Z" fill="#C5C9CC" stroke="#004990" stroke-width="2" stroke-linecap="round" stroke-linejoin="round"/>
<path d="M7.4707 55.6152H24.3497" stroke="#004990" stroke-width="2" stroke-linecap="round" stroke-linejoin="round"/>
<path d="M-2.98242 65.9277H24.3502" stroke="#004990" stroke-width="2" stroke-linecap="round" stroke-linejoin="round"/>
<path d="M7.4707 76.2363H24.3497" stroke="#004990" stroke-width="2" stroke-linecap="round" stroke-linejoin="round"/>
<path d="M87.9828 58.5083C87.9828 81.3814 69.3138 99.9942 46.3716 99.9942C45.0162 99.9942 43.6746 99.9288 42.3502 99.8016L41.1741 104.983L35.3661 98.5259L28.9339 91.36L34.7039 88.9462L45.8508 84.2835L44.3333 91.0162C45.0093 91.0609 45.6887 91.0815 46.3751 91.0815C64.4163 91.0815 79.0501 76.4918 79.0501 58.5049C79.0501 40.518 64.4129 25.9248 46.3716 25.9248C34.6419 25.9248 24.3537 32.0867 18.5906 41.3363H8.49219C15.052 27.0011 29.5651 17.0156 46.3716 17.0156C69.3138 17.0156 87.9828 35.6284 87.9828 58.5083Z" fill="#26A851" stroke="#004990" stroke-width="2" stroke-linecap="round" stroke-linejoin="round"/>
</g>
<defs>
<clipPath id="clip0_3413_7687">
<rect width="220" height="200" fill="white"/>
</clipPath>
</defs>
</svg>
