<svg width="200" height="200" viewBox="0 0 200 200" fill="none" xmlns="http://www.w3.org/2000/svg">
<path d="M150 150C177.614 122.386 177.614 77.6143 150 50C122.386 22.3858 77.6142 22.3858 50 50C22.3858 77.6142 22.3858 122.386 50 150C77.6142 177.614 122.386 177.614 150 150Z" fill="#016273" fill-opacity="0.2"/>
<path d="M130.328 35.5781H144.882V77.6187H130.328" fill="#EFF1F3"/>
<path d="M130.328 35.5781H144.882V77.6187H130.328" stroke="#004990" stroke-width="2" stroke-linecap="round" stroke-linejoin="round"/>
<path d="M70.4973 77.6187H55.9434V35.5781H70.4973" fill="#EFF1F3"/>
<path d="M70.4973 77.6187H55.9434V35.5781H70.4973" stroke="#004990" stroke-width="2" stroke-linecap="round" stroke-linejoin="round"/>
<path d="M125.478 26.6797H75.3482C72.6695 26.6797 70.498 28.8512 70.498 31.5299V81.6598C70.498 84.3385 72.6695 86.51 75.3482 86.51H125.478C128.157 86.51 130.328 84.3385 130.328 81.6598V31.5299C130.328 28.8512 128.157 26.6797 125.478 26.6797Z" fill="#C5C9CC" stroke="#004990" stroke-width="2" stroke-linecap="round" stroke-linejoin="round"/>
<path d="M115.769 38H85.0502C83.2631 38 81.8145 39.4487 81.8145 41.2357V71.9547C81.8145 73.7417 83.2631 75.1904 85.0502 75.1904H115.769C117.556 75.1904 119.005 73.7417 119.005 71.9547V41.2357C119.005 39.4487 117.556 38 115.769 38Z" fill="#EFF1F3" stroke="#004990" stroke-width="2" stroke-linecap="round" stroke-linejoin="round"/>
<path d="M108.499 45.2773H92.3305C90.5434 45.2773 89.0947 46.726 89.0947 48.5131V64.6815C89.0947 66.4685 90.5434 67.9172 92.3305 67.9172H108.499C110.286 67.9172 111.735 66.4685 111.735 64.6815V48.5131C111.735 46.726 110.286 45.2773 108.499 45.2773Z" stroke="#004990" stroke-width="2" stroke-linecap="round" stroke-linejoin="round"/>
<path d="M82.7627 38.9492L118.062 74.2447" stroke="#004990" stroke-width="2" stroke-linecap="round" stroke-linejoin="round"/>
<path d="M118.062 38.9492L82.7627 74.2447" stroke="#004990" stroke-width="2" stroke-linecap="round" stroke-linejoin="round"/>
<path d="M50.2822 82.4704H55.943V30.7227H50.2822" fill="#26A851"/>
<path d="M50.2822 82.4704H55.943V30.7227H50.2822" stroke="#004990" stroke-width="2" stroke-linecap="round" stroke-linejoin="round"/>
<path d="M150.539 82.4704H144.882V30.7227H150.539" fill="#26A851"/>
<path d="M150.539 82.4704H144.882V30.7227H150.539" stroke="#004990" stroke-width="2" stroke-linecap="round" stroke-linejoin="round"/>
<path d="M80.4711 149.691H92.0287V179.949H48.8047" fill="#EFF1F3"/>
<path d="M80.4711 149.691H92.0287V179.949H48.8047" stroke="#004990" stroke-width="2" stroke-linecap="round" stroke-linejoin="round"/>
<path d="M30.0742 122.675V107.184H67.5348V122.675" fill="#EFF1F3"/>
<path d="M30.0742 122.675V107.184H67.5348V122.675" stroke="#004990" stroke-width="2" stroke-linecap="round" stroke-linejoin="round"/>
<path d="M73.298 99.2578V104.3C73.298 105.89 72.0085 107.18 70.418 107.18H27.1906C25.6001 107.18 24.3105 105.89 24.3105 104.3V99.2578" fill="#26A851"/>
<path d="M73.298 99.2578V104.3C73.298 105.89 72.0085 107.18 70.418 107.18H27.1906C25.6001 107.18 24.3105 105.89 24.3105 104.3V99.2578" stroke="#004990" stroke-width="2" stroke-linecap="round" stroke-linejoin="round"/>
<path d="M48.8046 179.945C66.3105 179.945 80.5018 165.754 80.5018 148.248C80.5018 130.742 66.3105 116.551 48.8046 116.551C31.2987 116.551 17.1074 130.742 17.1074 148.248C17.1074 165.754 31.2987 179.945 48.8046 179.945Z" fill="#EFF1F3" stroke="#004990" stroke-width="2" stroke-linecap="round" stroke-linejoin="round"/>
<path d="M66.1241 165.566C75.6895 156 75.6895 140.492 66.1241 130.926C56.5587 121.361 41.0501 121.361 31.4847 130.926C21.9193 140.492 21.9193 156 31.4847 165.566C41.0501 175.131 56.5587 175.131 66.1241 165.566Z" fill="#C5C9CC" stroke="#004990" stroke-width="2" stroke-linecap="round" stroke-linejoin="round"/>
<path d="M48.8059 152.569C51.1936 152.569 53.1293 150.633 53.1293 148.245C53.1293 145.858 51.1936 143.922 48.8059 143.922C46.4181 143.922 44.4824 145.858 44.4824 148.245C44.4824 150.633 46.4181 152.569 48.8059 152.569Z" fill="#EFF1F3" stroke="#004990" stroke-width="2" stroke-linecap="round" stroke-linejoin="round"/>
<path d="M48.8047 143.924C48.8047 137.49 54.4792 129.637 63.7178 128.812" stroke="#004990" stroke-width="2" stroke-linecap="round" stroke-linejoin="round"/>
<path d="M45.0589 146.088C39.487 142.873 35.5227 134.031 39.4289 125.617" stroke="#004990" stroke-width="2" stroke-linecap="round" stroke-linejoin="round"/>
<path d="M45.0588 150.407C39.4869 153.622 29.8481 152.637 24.5156 145.047" stroke="#004990" stroke-width="2" stroke-linecap="round" stroke-linejoin="round"/>
<path d="M48.8037 152.57C48.8037 159.004 43.1292 166.857 33.8906 167.682" stroke="#004990" stroke-width="2" stroke-linecap="round" stroke-linejoin="round"/>
<path d="M52.5469 150.406C58.1188 153.621 62.083 162.463 58.1769 170.878" stroke="#004990" stroke-width="2" stroke-linecap="round" stroke-linejoin="round"/>
<path d="M52.5469 146.089C58.1188 142.873 67.7576 143.859 73.09 151.449" stroke="#004990" stroke-width="2" stroke-linecap="round" stroke-linejoin="round"/>
<path d="M99.2318 184.268H94.9083C93.3178 184.268 92.0283 182.978 92.0283 181.388V148.247C92.0283 146.657 93.3178 145.367 94.9083 145.367H99.2318" fill="#26A851"/>
<path d="M99.2318 184.268H94.9083C93.3178 184.268 92.0283 182.978 92.0283 181.388V148.247C92.0283 146.657 93.3178 145.367 94.9083 145.367H99.2318" stroke="#004990" stroke-width="2" stroke-linecap="round" stroke-linejoin="round"/>
<path d="M174.688 158.353V176.191C174.688 177.983 173.238 179.433 171.445 179.433H124.421C122.629 179.433 121.179 177.98 121.179 176.191V106.465C121.179 104.673 122.629 103.223 124.421 103.223H160.904L174.688 117.007V122.682" fill="#C5C9CC"/>
<path d="M174.688 158.353V176.191C174.688 177.983 173.238 179.433 171.445 179.433H124.421C122.629 179.433 121.179 177.98 121.179 176.191V106.465C121.179 104.673 122.629 103.223 124.421 103.223H160.904L174.688 117.007V122.682" stroke="#004990" stroke-width="2" stroke-linecap="round" stroke-linejoin="round"/>
<path d="M175.498 129.979L180.601 124.875C180.967 124.509 181.467 124.301 181.987 124.301C182.507 124.301 183.002 124.506 183.372 124.875L190.332 131.836C190.698 132.202 190.907 132.701 190.907 133.221C190.907 133.741 190.702 134.237 190.332 134.607L185.229 139.71" fill="#26A851"/>
<path d="M175.498 129.979L180.601 124.875C180.967 124.509 181.467 124.301 181.987 124.301C182.507 124.301 183.002 124.506 183.372 124.875L190.332 131.836C190.698 132.202 190.907 132.701 190.907 133.221C190.907 133.741 190.702 134.237 190.332 134.607L185.229 139.71" stroke="#004990" stroke-width="2" stroke-linecap="round" stroke-linejoin="round"/>
<path d="M165.77 117.004H164.149C162.357 117.004 160.906 115.553 160.906 113.761V103.223L174.691 117.007" fill="#EFF1F3"/>
<path d="M165.77 117.004H164.149C162.357 117.004 160.906 115.553 160.906 113.761V103.223L174.691 117.007" stroke="#004990" stroke-width="2" stroke-linecap="round" stroke-linejoin="round"/>
<path d="M156.85 168.08H147.122V158.352L175.498 129.977L185.226 139.704L156.85 168.08Z" fill="#EFF1F3" stroke="#004990" stroke-width="2" stroke-linecap="round" stroke-linejoin="round"/>
<path d="M147.121 158.352L156.849 168.079" stroke="#004990" stroke-width="2" stroke-linecap="round" stroke-linejoin="round"/>
<path d="M158.471 156.734L173.876 141.328" stroke="#004990" stroke-width="2" stroke-linecap="round" stroke-linejoin="round"/>
<path d="M185.225 139.703L188.707 143.185C189.073 143.551 189.282 144.05 189.282 144.57C189.282 145.09 189.077 145.586 188.707 145.956L178.74 155.923" stroke="#004990" stroke-width="2" stroke-linecap="round" stroke-linejoin="round"/>
<path d="M131.313 164.432L134.963 168.082L141.041 162" stroke="#004990" stroke-width="2" stroke-linecap="round" stroke-linejoin="round"/>
<path d="M139.013 143.758H132.528C131.632 143.758 130.906 144.484 130.906 145.379V151.864C130.906 152.76 131.632 153.486 132.528 153.486H139.013C139.908 153.486 140.634 152.76 140.634 151.864V145.379C140.634 144.484 139.908 143.758 139.013 143.758Z" fill="#EFF1F3" stroke="#004990" stroke-width="2" stroke-linecap="round" stroke-linejoin="round"/>
<path d="M139.013 125.922H132.528C131.632 125.922 130.906 126.648 130.906 127.543V134.028C130.906 134.924 131.632 135.65 132.528 135.65H139.013C139.908 135.65 140.634 134.924 140.634 134.028V127.543C140.634 126.648 139.908 125.922 139.013 125.922Z" fill="#EFF1F3" stroke="#004990" stroke-width="2" stroke-linecap="round" stroke-linejoin="round"/>
<path d="M147.121 125.922H163.337" stroke="#004990" stroke-width="2" stroke-linecap="round" stroke-linejoin="round"/>
<path d="M147.122 135.652H160.096" stroke="#004990" stroke-width="2" stroke-linecap="round" stroke-linejoin="round"/>
<path d="M147.121 143.758H151.985" stroke="#004990" stroke-width="2" stroke-linecap="round" stroke-linejoin="round"/>
</svg>
