<svg width="145" height="150" viewBox="0 0 145 150" fill="none" xmlns="http://www.w3.org/2000/svg">
<g clip-path="url(#clip0_3413_7658)">
<path d="M113.523 118.71C137.702 94.4853 137.702 55.21 113.523 30.9857C89.3445 6.76142 50.1433 6.76142 25.9647 30.9857C1.78615 55.21 1.78615 94.4853 25.9647 118.71C50.1433 142.934 89.3445 142.934 113.523 118.71Z" fill="#016273" fill-opacity="0.25"/>
<path d="M48.964 51.4648V59.0532H38.2363V51.4648" fill="#26A851"/>
<path d="M48.964 51.4648V59.0532H38.2363V51.4648" stroke="#004990" stroke-width="2" stroke-linecap="round" stroke-linejoin="round"/>
<path d="M101.341 51.4648V59.0532H90.6133V51.4648" fill="#26A851"/>
<path d="M101.341 51.4648V59.0532H90.6133V51.4648" stroke="#004990" stroke-width="2" stroke-linecap="round" stroke-linejoin="round"/>
<path d="M105.129 0.884766H34.4496C32.3589 0.884766 30.6641 2.58281 30.6641 4.67745V47.6722C30.6641 49.7668 32.3589 51.4649 34.4496 51.4649H105.129C107.219 51.4649 108.914 49.7668 108.914 47.6722V4.67745C108.914 2.58281 107.219 0.884766 105.129 0.884766Z" fill="white" stroke="#004990" stroke-width="2" stroke-linecap="round" stroke-linejoin="round"/>
<path d="M73.3714 6.57812H38.4392C37.2814 6.57812 36.3428 7.5185 36.3428 8.6785V43.6768C36.3428 44.8368 37.2814 45.7772 38.4392 45.7772H73.3714C74.5293 45.7772 75.4679 44.8368 75.4679 43.6768V8.6785C75.4679 7.5185 74.5293 6.57812 73.3714 6.57812Z" fill="#26A851" stroke="#004990" stroke-width="2" stroke-linecap="round" stroke-linejoin="round"/>
<path d="M100.08 8.47266H82.4073C81.711 8.47266 81.1465 9.03822 81.1465 9.73588V14.7978C81.1465 15.4955 81.711 16.061 82.4073 16.061H100.08C100.776 16.061 101.341 15.4955 101.341 14.7978V9.73588C101.341 9.03822 100.776 8.47266 100.08 8.47266Z" fill="#C5C9CC" stroke="#004990" stroke-width="2" stroke-linecap="round" stroke-linejoin="round"/>
<path d="M89.9814 43.8789H101.341" stroke="#004990" stroke-width="2" stroke-linecap="round" stroke-linejoin="round"/>
<path d="M89.9805 38.8203H101.34" stroke="#004990" stroke-width="2" stroke-linecap="round" stroke-linejoin="round"/>
<path d="M55.9058 40.718C63.9212 40.718 70.4189 34.2079 70.4189 26.1773C70.4189 18.1468 63.9212 11.6367 55.9058 11.6367C47.8903 11.6367 41.3926 18.1468 41.3926 26.1773C41.3926 34.2079 47.8903 40.718 55.9058 40.718Z" fill="white" stroke="#004990" stroke-width="2" stroke-linecap="round" stroke-linejoin="round"/>
<path d="M55.9056 29.3388C57.649 29.3388 59.0622 27.9229 59.0622 26.1762C59.0622 24.4296 57.649 23.0137 55.9056 23.0137C54.1623 23.0137 52.749 24.4296 52.749 26.1762C52.749 27.9229 54.1623 29.3388 55.9056 29.3388Z" fill="#26A851" stroke="#004990" stroke-width="2" stroke-linecap="round" stroke-linejoin="round"/>
<path d="M55.9023 23.0138C55.9293 21.5495 56.5043 15.5544 64.0185 14.1172" stroke="#004990" stroke-width="2" stroke-linecap="round" stroke-linejoin="round"/>
<path d="M53.1713 24.5975C51.9194 23.8414 47.0228 20.3458 49.5385 13.1055" stroke="#004990" stroke-width="2" stroke-linecap="round" stroke-linejoin="round"/>
<path d="M53.1747 27.7615C51.8929 28.4696 46.4242 30.9691 41.4258 25.166" stroke="#004990" stroke-width="2" stroke-linecap="round" stroke-linejoin="round"/>
<path d="M55.9091 29.3359C55.8821 30.8002 55.3071 36.7953 47.793 38.2325" stroke="#004990" stroke-width="2" stroke-linecap="round" stroke-linejoin="round"/>
<path d="M58.6396 27.7559C59.8915 28.512 64.7881 32.0076 62.2724 39.2479" stroke="#004990" stroke-width="2" stroke-linecap="round" stroke-linejoin="round"/>
<path d="M58.6367 24.5933C59.9155 23.8852 65.3872 21.3857 70.3856 27.1888" stroke="#004990" stroke-width="2" stroke-linecap="round" stroke-linejoin="round"/>
<path d="M41.0295 123.283V131.103H25.4502V123.283" fill="white"/>
<path d="M41.0295 123.283V131.103H25.4502V123.283" stroke="#004990" stroke-width="2" stroke-linecap="round" stroke-linejoin="round"/>
<path d="M12.2706 106.755C12.2706 109.26 14.2981 111.294 16.8018 111.294H18.2633V113.095C18.2633 119.063 23.0911 123.9 29.0479 123.9H37.4365C43.3933 123.9 48.2211 119.063 48.2211 113.095V111.294H49.6826C52.1833 111.294 54.2138 109.263 54.2138 106.755C54.2138 104.249 52.1863 102.215 49.6826 102.215H16.7988C14.2981 102.215 12.2676 104.246 12.2676 106.755H12.2706Z" fill="white"/>
<path d="M12.5211 104.949C12.3564 105.432 12.2695 105.951 12.2695 106.492C12.2695 109.144 14.4169 111.295 17.0643 111.295H18.2623V113.096C18.2623 119.064 23.09 123.901 29.0468 123.901H37.4355C43.3923 123.901 48.22 119.064 48.22 113.096V111.295H49.418C52.0655 111.295 54.2128 109.144 54.2128 106.492C54.2128 105.972 54.1319 105.474 53.9792 105.006" fill="white"/>
<path d="M12.5211 104.949C12.3564 105.432 12.2695 105.951 12.2695 106.492C12.2695 109.144 14.4169 111.295 17.0643 111.295H18.2623V113.096C18.2623 119.064 23.09 123.901 29.0468 123.901H37.4355C43.3923 123.901 48.22 119.064 48.22 113.096V111.295H49.418C52.0655 111.295 54.2128 109.144 54.2128 106.492C54.2128 105.972 54.1319 105.474 53.9792 105.006" stroke="#004990" stroke-width="2" stroke-linecap="round" stroke-linejoin="round"/>
<path d="M38.6343 77.875C45.4357 79.0182 50.6168 84.9443 50.6168 92.0826V98.6867H15.8643V92.0826C15.8643 84.9443 21.0454 79.0182 27.8468 77.875" fill="#C5C9CC"/>
<path d="M38.6343 77.875C45.4357 79.0182 50.6168 84.9443 50.6168 92.0826V98.6867H15.8643V92.0826C15.8643 84.9443 21.0454 79.0182 27.8468 77.875" stroke="#004990" stroke-width="2" stroke-linecap="round" stroke-linejoin="round"/>
<path d="M27.8457 88.4832V75.878C27.8457 75.2148 28.3818 74.6777 29.0437 74.6777H37.4323C38.0942 74.6777 38.6303 75.2148 38.6303 75.878V88.4832" fill="#C5C9CC"/>
<path d="M27.8457 88.4832V75.878C27.8457 75.2148 28.3818 74.6777 29.0437 74.6777H37.4323C38.0942 74.6777 38.6303 75.2148 38.6303 75.878V88.4832" stroke="#004990" stroke-width="2" stroke-linecap="round" stroke-linejoin="round"/>
<path d="M14.909 98.6875C13.8787 98.6875 13.3307 99.9027 14.0075 100.68L18.8652 106.243C20.0033 107.545 21.6475 108.292 23.3755 108.292H43.1028C44.8308 108.292 46.475 107.545 47.6131 106.243L52.4707 100.68C53.1476 99.9027 52.5995 98.6875 51.5693 98.6875H14.909Z" fill="#C5C9CC" stroke="#004990" stroke-width="2" stroke-linecap="round" stroke-linejoin="round"/>
<path d="M0.883789 149.111V146.71C0.883789 138.09 7.85886 131.102 16.4631 131.102H50.0178C58.622 131.102 65.5971 138.09 65.5971 146.71V149.111" fill="#26A851"/>
<path d="M0.883789 149.111V146.71C0.883789 138.09 7.85886 131.102 16.4631 131.102H50.0178C58.622 131.102 65.5971 138.09 65.5971 146.71V149.111" stroke="#004990" stroke-width="2" stroke-linecap="round" stroke-linejoin="round"/>
<path d="M12.2695 149.111V131.678C13.6052 131.303 15.0098 131.102 16.4654 131.102H21.8591L33.2427 149.111L44.6262 131.102H50.02C51.4725 131.102 52.8801 131.3 54.2158 131.675V149.111" fill="#C5C9CC"/>
<path d="M12.2695 149.111V131.678C13.6052 131.303 15.0098 131.102 16.4654 131.102H21.8591L33.2427 149.111L44.6262 131.102H50.02C51.4725 131.102 52.8801 131.3 54.2158 131.675V149.111" stroke="#004990" stroke-width="2" stroke-linecap="round" stroke-linejoin="round"/>
<path d="M89.7327 87.4901L100.787 98.5651C101.449 99.2282 101.449 100.305 100.787 100.972L93.5842 108.188C92.9223 108.851 91.8471 108.851 91.1823 108.188L80.1282 97.1129C77.4388 103.594 78.7176 111.338 83.9796 116.607C89.2416 121.876 96.9714 123.161 103.437 120.466L127.935 145.01C130.493 147.573 134.656 147.876 137.375 145.485C140.352 142.865 140.463 138.313 137.705 135.553L113.042 110.843C115.731 104.362 114.452 96.6178 109.19 91.3488C103.928 86.0769 96.2017 84.7956 89.7327 87.4901Z" fill="#26A851" stroke="#004990" stroke-width="2" stroke-linecap="round" stroke-linejoin="round"/>
<path d="M117.324 110.693L123.356 116.736L141.774 98.1901L144.116 89.0625L135.614 92.018L117.324 110.693Z" fill="white" stroke="#004990" stroke-width="2" stroke-linecap="round" stroke-linejoin="round"/>
<path d="M109.768 112.445L114.419 107.785L126.179 119.568L121.528 124.228C119.567 123.073 117.009 123.319 115.323 125.005C113.637 126.692 113.391 129.257 114.547 131.222L100.253 145.544C98.1594 147.641 94.7632 147.641 92.6698 145.544L88.4919 141.358C86.3985 139.261 86.3985 135.858 88.4919 133.761L102.786 119.439C104.748 120.594 107.306 120.348 108.992 118.662C110.675 116.976 110.924 114.41 109.768 112.445Z" fill="#C5C9CC" stroke="#004990" stroke-width="2" stroke-linecap="round" stroke-linejoin="round"/>
</g>
<defs>
<clipPath id="clip0_3413_7658">
<rect width="145" height="150" fill="white"/>
</clipPath>
</defs>
</svg>
