<svg width="179" height="200" viewBox="0 0 179 200" fill="none" xmlns="http://www.w3.org/2000/svg">
<g clip-path="url(#clip0_3413_7610)">
<path d="M146.35 152.024C175.597 122.828 175.597 75.492 146.35 46.2959C117.102 17.0998 69.6825 17.0998 40.4349 46.2959C11.1874 75.492 11.1874 122.828 40.4349 152.024C69.6825 181.221 117.102 181.22 146.35 152.024Z" fill="#016273" fill-opacity="0.25"/>
<path d="M161.599 25.2817H155.905C155.336 22.9997 154.434 20.848 153.249 18.8843L157.278 14.8629C157.835 14.306 157.835 13.4055 157.278 12.8486L151.224 6.80559C150.666 6.24867 149.764 6.24867 149.206 6.80559L145.178 10.827C143.21 9.64445 141.055 8.74397 138.769 8.1762V2.49126C138.769 1.70289 138.131 1.06641 137.342 1.06641H128.781C127.991 1.06641 127.354 1.70289 127.354 2.49126V8.1762C125.068 8.74397 122.912 9.64445 120.945 10.827L116.916 6.80559C116.359 6.24867 115.457 6.24867 114.899 6.80559L108.845 12.8486C108.287 13.4055 108.287 14.306 108.845 14.8629L112.874 18.8843C111.689 20.848 110.787 22.9997 110.218 25.2817H104.523C103.733 25.2817 103.096 25.9181 103.096 26.7065V35.252C103.096 36.0404 103.733 36.6769 104.523 36.6769H110.218C110.787 38.9588 111.689 41.1105 112.874 43.0742L108.845 47.0956C108.287 47.6525 108.287 48.553 108.845 49.11L114.899 55.1529C115.457 55.7098 116.359 55.7098 116.916 55.1529L120.945 51.1315C122.912 52.3141 125.068 53.2145 127.354 53.7823V59.4672C127.354 60.2556 127.991 60.8921 128.781 60.8921H137.342C138.131 60.8921 138.769 60.2556 138.769 59.4672V53.7823C141.055 53.2145 143.21 52.3141 145.178 51.1315L149.206 55.1529C149.764 55.7098 150.666 55.7098 151.224 55.1529L157.278 49.11C157.835 48.553 157.835 47.6525 157.278 47.0956L153.249 43.0742C154.434 41.1105 155.336 38.9588 155.905 36.6769H161.599C162.389 36.6769 163.027 36.0404 163.027 35.252V26.7065C163.027 25.9181 162.389 25.2817 161.599 25.2817Z" fill="#26A851" stroke="#004990" stroke-width="2" stroke-linecap="round" stroke-linejoin="round"/>
<path d="M138.77 17.1523V30.2653C138.77 31.0537 138.132 31.6902 137.342 31.6902H128.782C127.992 31.6902 127.354 31.0537 127.354 30.2653V17.1523C121.913 19.3945 118.08 24.7359 118.08 30.9777C118.08 37.2196 121.913 42.561 127.354 44.8031V61.4059C127.354 64.4401 129.648 67.0909 132.683 67.2862C136.009 67.4995 138.77 64.874 138.77 61.6012V44.8031C144.211 42.561 148.044 37.2196 148.044 30.9777C148.044 24.7359 144.211 19.3945 138.77 17.1523Z" fill="white" stroke="#004990" stroke-width="2" stroke-linecap="round" stroke-linejoin="round"/>
<path d="M170.874 50.918H95.249C92.4919 50.918 90.2568 53.1491 90.2568 55.9013V82.9663C90.2568 85.7185 92.4919 87.9496 95.249 87.9496H170.874C173.631 87.9496 175.866 85.7185 175.866 82.9663V55.9013C175.866 53.1491 173.631 50.918 170.874 50.918Z" fill="white" stroke="#004990" stroke-width="2" stroke-linecap="round" stroke-linejoin="round"/>
<path d="M105.237 73.709H160.883C163.245 73.709 165.165 75.622 165.165 77.9835V87.9539H100.959V77.9835C100.959 75.6257 102.875 73.709 105.241 73.709H105.237Z" fill="#C5C9CC" stroke="#004990" stroke-width="2" stroke-linecap="round" stroke-linejoin="round"/>
<path d="M115.225 56.6172H102.386C101.598 56.6172 100.959 57.2551 100.959 58.042V61.6006C100.959 62.3875 101.598 63.0254 102.386 63.0254H115.225C116.014 63.0254 116.653 62.3875 116.653 61.6006V58.042C116.653 57.2551 116.014 56.6172 115.225 56.6172Z" fill="#26A851" stroke="#004990" stroke-width="2" stroke-linecap="round" stroke-linejoin="round"/>
<path d="M165.165 59.4644C165.165 59.8586 164.846 60.1768 164.451 60.1768C164.056 60.1768 163.737 59.8586 163.737 59.4644C163.737 59.0702 164.056 58.752 164.451 58.752C164.846 58.752 165.165 59.0702 165.165 59.4644Z" stroke="#004990" stroke-width="2" stroke-linecap="round" stroke-linejoin="round"/>
<path d="M158.032 59.4644C158.032 59.8586 157.713 60.1768 157.318 60.1768C156.923 60.1768 156.604 59.8586 156.604 59.4644C156.604 59.0702 156.923 58.752 157.318 58.752C157.713 58.752 158.032 59.0702 158.032 59.4644Z" stroke="#004990" stroke-width="2" stroke-linecap="round" stroke-linejoin="round"/>
<path d="M150.898 59.4644C150.898 59.8586 150.579 60.1768 150.184 60.1768C149.79 60.1768 149.471 59.8586 149.471 59.4644C149.471 59.0702 149.79 58.752 150.184 58.752C150.579 58.752 150.898 59.0702 150.898 59.4644Z" stroke="#004990" stroke-width="2" stroke-linecap="round" stroke-linejoin="round"/>
<path d="M11.0562 143.385H60.9958C69.665 143.385 76.6895 136.37 76.6895 127.719C76.6895 119.069 69.6614 112.053 60.9958 112.053H23.8988C22.3266 112.053 21.0441 110.777 21.0441 109.203C21.0441 107.63 22.3229 106.354 23.8988 106.354H60.9958C69.665 106.354 76.6895 99.338 76.6895 90.6876C76.6895 82.0373 69.6614 75.0215 60.9958 75.0215H11.0562V87.8415H60.9958C62.568 87.8415 63.8505 89.1181 63.8505 90.6912C63.8505 92.2644 62.5717 93.5409 60.9958 93.5409H23.8988C15.2296 93.5409 8.20508 100.557 8.20508 109.207C8.20508 117.857 15.2332 124.873 23.8988 124.873H60.9958C62.568 124.873 63.8505 126.15 63.8505 127.723C63.8505 129.296 62.5717 130.573 60.9958 130.573H11.0562V143.393V143.385Z" fill="#C5C9CC" stroke="#004990" stroke-width="2" stroke-linecap="round" stroke-linejoin="round"/>
<path d="M1.06836 94.2495H8.20155C9.77745 94.2495 11.0563 92.9729 11.0563 91.3998V71.4591C11.0563 69.886 9.77745 68.6094 8.20155 68.6094H1.06836" fill="white"/>
<path d="M1.06836 94.2495H8.20155C9.77745 94.2495 11.0563 92.9729 11.0563 91.3998V71.4591C11.0563 69.886 9.77745 68.6094 8.20155 68.6094H1.06836" stroke="#004990" stroke-width="2" stroke-linecap="round" stroke-linejoin="round"/>
<path d="M1.06836 149.796H8.20155C9.77745 149.796 11.0563 148.52 11.0563 146.947V127.006C11.0563 125.433 9.77745 124.156 8.20155 124.156H1.06836" fill="white"/>
<path d="M1.06836 149.796H8.20155C9.77745 149.796 11.0563 148.52 11.0563 146.947V127.006C11.0563 125.433 9.77745 124.156 8.20155 124.156H1.06836" stroke="#004990" stroke-width="2" stroke-linecap="round" stroke-linejoin="round"/>
<path d="M1.06836 65.0508V97.8079" stroke="#004990" stroke-width="2" stroke-linecap="round" stroke-linejoin="round"/>
<path d="M1.06836 120.598V153.355" stroke="#004990" stroke-width="2" stroke-linecap="round" stroke-linejoin="round"/>
<path d="M32.203 45.1504C30.8227 46.5608 30.3083 48.3075 30.3047 50.0759C30.3047 52.0938 31.0075 54.1443 32.5834 55.7536C34.152 57.3593 34.8585 59.4242 34.8585 61.4385C34.8585 63.2142 34.3441 64.9464 32.9602 66.364" stroke="#004990" stroke-width="2" stroke-linecap="round" stroke-linejoin="round"/>
<path d="M42.0673 45.1504C40.687 46.5608 40.1726 48.3075 40.1689 50.0759C40.1689 52.0938 40.8718 54.1443 42.4477 55.7536C44.0163 57.3593 44.7227 59.4242 44.7227 61.4385C44.7227 63.2142 44.2083 64.9464 42.8244 66.364" stroke="#004990" stroke-width="2" stroke-linecap="round" stroke-linejoin="round"/>
<path d="M51.9325 45.1504C50.5522 46.5608 50.0378 48.3075 50.0342 50.0759C50.0342 52.0938 50.737 54.1443 52.3129 55.7536C53.8815 57.3593 54.588 59.4242 54.588 61.4385C54.588 63.2142 54.0735 64.9464 52.6897 66.364" stroke="#004990" stroke-width="2" stroke-linecap="round" stroke-linejoin="round"/>
<path d="M107.664 160.123L87.8988 178.194C83.0298 182.646 82.6965 190.197 87.1561 195.057C91.6157 199.918 99.18 200.247 104.049 195.799L123.815 177.728" fill="#C5C9CC"/>
<path d="M107.664 160.123L87.8988 178.194C83.0298 182.646 82.6965 190.197 87.1561 195.057C91.6157 199.918 99.18 200.247 104.049 195.799L123.815 177.728" stroke="#004990" stroke-width="2" stroke-linecap="round" stroke-linejoin="round"/>
<path d="M170.236 172.134C183.621 153.214 179.107 127.045 160.154 113.684C141.2 100.322 114.985 104.828 101.6 123.748C88.2149 142.668 92.729 168.837 111.682 182.199C130.636 195.56 156.851 191.054 170.236 172.134Z" fill="white" stroke="#004990" stroke-width="2" stroke-linecap="round" stroke-linejoin="round"/>
<path d="M166.498 163.58H113.041V132.822H166.498" fill="white"/>
<path d="M166.498 163.58H113.041V132.822H166.498" stroke="#004990" stroke-width="2" stroke-linecap="round" stroke-linejoin="round"/>
<path d="M129.079 162.961L135.035 157.02L126.104 148.102" stroke="#004990" stroke-width="2" stroke-linecap="round" stroke-linejoin="round"/>
<path d="M129.078 151.075L135.034 145.133" stroke="#004990" stroke-width="2" stroke-linecap="round" stroke-linejoin="round"/>
<path d="M154.547 172.084C154.547 167.159 145.617 157.225 145.617 157.225C145.617 157.225 136.687 167.159 136.687 172.084C136.687 177.01 140.686 180.999 145.617 180.999C150.547 180.999 154.547 177.006 154.547 172.084Z" fill="#26A851" stroke="#004990" stroke-width="2" stroke-linecap="round" stroke-linejoin="round"/>
<path d="M106.393 127.691H117.069C118.014 127.691 118.779 128.454 118.779 129.398V167.001C118.779 167.945 118.014 168.708 117.069 168.708H106.393" fill="#26A851"/>
<path d="M106.393 127.691H117.069C118.014 127.691 118.779 128.454 118.779 129.398V167.001C118.779 167.945 118.014 168.708 117.069 168.708H106.393" stroke="#004990" stroke-width="2" stroke-linecap="round" stroke-linejoin="round"/>
</g>
<defs>
<clipPath id="clip0_3413_7610">
<rect width="179" height="200" fill="white"/>
</clipPath>
</defs>
</svg>
