<svg width="220" height="200" viewBox="0 0 220 200" fill="none" xmlns="http://www.w3.org/2000/svg">
<g clip-path="url(#clip0_3413_7636)">
<path d="M162.666 166.594C195.467 133.784 195.467 80.5875 162.666 47.7772C129.864 14.9669 76.6827 14.9669 43.8814 47.7772C11.08 80.5875 11.08 133.784 43.8814 166.594C76.6827 199.404 129.864 199.404 162.666 166.594Z" fill="#016273" fill-opacity="0.25"/>
<path d="M94.8774 155.527H7.00012C3.79583 155.527 1.19824 158.126 1.19824 161.331V192.843C1.19824 196.049 3.79583 198.647 7.00012 198.647H94.8774C98.0817 198.647 100.679 196.049 100.679 192.843V161.331C100.679 158.126 98.0817 155.527 94.8774 155.527Z" fill="white" stroke="#004990" stroke-width="2" stroke-linecap="round" stroke-linejoin="round"/>
<path d="M18.6078 182.062H83.2695C86.016 182.062 88.2425 184.294 88.2425 187.037V198.648H13.6348V187.037C13.6348 184.29 15.8653 182.062 18.6078 182.062Z" fill="#26A851" stroke="#004990" stroke-width="2" stroke-linecap="round" stroke-linejoin="round"/>
<path d="M30.2156 162.16H15.2924C14.3769 162.16 13.6348 162.903 13.6348 163.818V167.964C13.6348 168.879 14.3769 169.622 15.2924 169.622H30.2156C31.1311 169.622 31.8733 168.879 31.8733 167.964V163.818C31.8733 162.903 31.1311 162.16 30.2156 162.16Z" fill="#26A851" stroke="#004990" stroke-width="2" stroke-linecap="round" stroke-linejoin="round"/>
<path d="M88.2465 165.476C88.2465 165.935 87.8768 166.305 87.4177 166.305C86.9586 166.305 86.5889 165.935 86.5889 165.476C86.5889 165.016 86.9586 164.646 87.4177 164.646C87.8768 164.646 88.2465 165.016 88.2465 165.476Z" stroke="#004990" stroke-width="2" stroke-linecap="round" stroke-linejoin="round"/>
<path d="M79.9585 165.476C79.9585 165.935 79.5887 166.305 79.1296 166.305C78.6705 166.305 78.3008 165.935 78.3008 165.476C78.3008 165.016 78.6705 164.646 79.1296 164.646C79.5887 164.646 79.9585 165.016 79.9585 165.476Z" stroke="#004990" stroke-width="2" stroke-linecap="round" stroke-linejoin="round"/>
<path d="M71.6665 165.476C71.6665 165.935 71.2967 166.305 70.8376 166.305C70.3785 166.305 70.0088 165.935 70.0088 165.476C70.0088 165.016 70.3785 164.646 70.8376 164.646C71.2967 164.646 71.6665 165.016 71.6665 165.476Z" stroke="#004990" stroke-width="2" stroke-linecap="round" stroke-linejoin="round"/>
<path d="M47.6456 101.491L18.3397 152.263C16.8729 154.803 18.7053 157.973 21.6347 157.973H80.2426C83.172 157.973 85.0044 154.799 83.5377 152.263L54.2317 101.491C52.7649 98.9509 49.1042 98.9509 47.6375 101.491H47.6456Z" fill="#C5C9CC" stroke="#004990" stroke-width="2" stroke-linecap="round" stroke-linejoin="round"/>
<path d="M53.9597 119.215L37.4316 138.207L47.073 138.455L43.3229 152.813C43.136 153.536 44.0339 154.032 44.5458 153.483L62.2603 134.451L51.3228 134.647L55.1948 119.87C55.3858 119.134 54.4554 118.642 53.9556 119.215H53.9597Z" fill="white" stroke="#004990" stroke-width="2" stroke-linecap="round" stroke-linejoin="round"/>
<path d="M180.732 123.646C191.344 134.167 202.977 145.128 202.018 163.563C200.973 183.586 184.141 198.704 164.094 198.798C139.851 198.908 123.05 180.534 124.757 157.056C125.309 149.44 127.65 141.901 133.098 135.618C134.138 134.415 136.113 135.33 135.906 136.907C135.719 138.341 135.593 139.857 135.67 141.088C136.101 148.196 140.086 153.37 146.859 153.862C153.632 154.353 159.678 146.884 156.968 138.662C155.087 132.952 149.407 128.567 148.683 117.879C148.046 108.503 153.348 93.0473 175.023 87.508C176.519 87.126 177.677 88.8979 176.685 90.0805C164.44 104.711 175.259 118.216 180.74 123.646H180.732Z" fill="#C5C9CC" stroke="#004990" stroke-width="2" stroke-linecap="round" stroke-linejoin="round"/>
<path d="M186.237 163.35C185.254 176.607 174.857 184.633 161.604 183.67L186.237 163.35Z" fill="#C5C9CC"/>
<path d="M186.237 163.35C185.254 176.607 174.857 184.633 161.604 183.67" stroke="#004990" stroke-width="2" stroke-linecap="round" stroke-linejoin="round"/>
<path d="M197.056 174.912C209.066 174.912 218.801 165.174 218.801 153.161C218.801 141.148 209.066 131.41 197.056 131.41C185.047 131.41 175.312 141.148 175.312 153.161C175.312 165.174 185.047 174.912 197.056 174.912Z" fill="white" stroke="#004990" stroke-width="2" stroke-linecap="round" stroke-linejoin="round"/>
<path d="M187.313 143.414L206.799 162.905" stroke="#004990" stroke-width="2" stroke-linecap="round" stroke-linejoin="round"/>
<path d="M206.799 143.414L187.313 162.905" stroke="#004990" stroke-width="2" stroke-linecap="round" stroke-linejoin="round"/>
<path d="M28.0303 90.95V74.2305" stroke="#004990" stroke-width="2" stroke-linecap="round" stroke-linejoin="round"/>
<path d="M24.0643 74.2305C24.0643 74.2305 24.7388 82.4805 16.5723 84.9839" stroke="#004990" stroke-width="2" stroke-linecap="round" stroke-linejoin="round"/>
<path d="M31.959 74.2305C31.959 74.2305 32.219 83.3421 39.5526 87.1989" stroke="#004990" stroke-width="2" stroke-linecap="round" stroke-linejoin="round"/>
<path d="M172.512 47.5739H150.674C143.036 47.5739 136.819 53.7919 136.819 61.4323V66.744C136.819 84.8412 122.099 99.5694 104.003 99.5694C85.9068 99.5694 71.1868 84.8453 71.1868 66.744V57.9779C71.1868 47.8828 62.9796 39.6734 52.8873 39.6734C42.7949 39.6734 34.5878 47.8868 34.5878 57.9779V74.23H21.5742V57.9779C21.5742 40.7057 35.6239 26.6562 52.8873 26.6562C70.1507 26.6562 84.2004 40.7057 84.2004 57.9779V66.744C84.2004 77.6641 93.0819 86.5482 103.999 86.5482C114.916 86.5482 123.798 77.6641 123.798 66.744V61.4323C123.798 46.6148 135.852 34.5568 150.666 34.5568H172.504" fill="#26A851"/>
<path d="M172.512 47.5739H150.674C143.036 47.5739 136.819 53.7919 136.819 61.4323V66.744C136.819 84.8412 122.099 99.5694 104.003 99.5694C85.9068 99.5694 71.1868 84.8453 71.1868 66.744V57.9779C71.1868 47.8828 62.9796 39.6734 52.8873 39.6734C42.7949 39.6734 34.5878 47.8868 34.5878 57.9779V74.23H21.5742V57.9779C21.5742 40.7057 35.6239 26.6562 52.8873 26.6562C70.1507 26.6562 84.2004 40.7057 84.2004 57.9779V66.744C84.2004 77.6641 93.0819 86.5482 103.999 86.5482C114.916 86.5482 123.798 77.6641 123.798 66.744V61.4323C123.798 46.6148 135.852 34.5568 150.666 34.5568H172.504" stroke="#004990" stroke-width="2" stroke-linecap="round" stroke-linejoin="round"/>
<path d="M113.612 1.19922L110.719 26.4898H126.427L101.488 65.8745L104.381 40.588H88.6777L113.612 1.19922Z" fill="#C5C9CC" stroke="#004990" stroke-width="2" stroke-linecap="round" stroke-linejoin="round"/>
</g>
<defs>
<clipPath id="clip0_3413_7636">
<rect width="220" height="200" fill="white"/>
</clipPath>
</defs>
</svg>
