<svg width="208" height="200" viewBox="0 0 208 200" fill="none" xmlns="http://www.w3.org/2000/svg">
<g clip-path="url(#clip0_3398_5768)">
<path opacity="0.25" d="M160.233 146.424C193.746 112.928 193.746 58.6192 160.233 25.1228C126.719 -8.37363 72.3838 -8.37363 38.8706 25.1228C5.35731 58.6192 5.3573 112.928 38.8705 146.424C72.3838 179.921 126.719 179.92 160.233 146.424Z" fill="#016273"/>
<path d="M89.5728 5.32812H6.69578C3.67414 5.32812 1.22461 7.77642 1.22461 10.7966V40.4953C1.22461 43.5155 3.67414 45.9638 6.69578 45.9638H89.5728C92.5945 45.9638 95.044 43.5155 95.044 40.4953V10.7966C95.044 7.77642 92.5945 5.32812 89.5728 5.32812Z" fill="#EFF1F3"/>
<path d="M55.9527 45.9635H6.69969C3.67767 45.9635 1.22852 43.5156 1.22852 40.4951V10.8005C1.22852 7.77996 3.67767 5.33203 6.69969 5.33203H89.5726C92.5946 5.33203 95.0438 7.77996 95.0438 10.8005V37.3709" stroke="#004990" stroke-width="2.5" stroke-linecap="round" stroke-linejoin="round"/>
<path d="M17.6468 30.334H78.6309C81.2212 30.334 83.3216 32.4334 83.3216 35.0224V45.9634H12.9561V35.0224C12.9561 32.4334 15.0565 30.334 17.6468 30.334Z" fill="#C5C9CC"/>
<path d="M57.5183 45.9634H12.9561V35.0224C12.9561 32.4334 15.0565 30.334 17.6468 30.334H57.5183" stroke="#004990" stroke-width="2.5" stroke-linecap="round" stroke-linejoin="round"/>
<path d="M28.5933 11.5801H14.521C13.6567 11.5801 12.9561 12.2804 12.9561 13.1443V17.0485C12.9561 17.9124 13.6567 18.6127 14.521 18.6127H28.5933C29.4576 18.6127 30.1583 17.9124 30.1583 17.0485V13.1443C30.1583 12.2804 29.4576 11.5801 28.5933 11.5801Z" fill="#26A851" stroke="#004990" stroke-width="2.5" stroke-linecap="round" stroke-linejoin="round"/>
<path d="M82.537 15.4839C82.9685 15.4839 83.3182 15.1346 83.3182 14.7038C83.3182 14.2731 82.9685 13.9238 82.537 13.9238C82.1056 13.9238 81.7559 14.2731 81.7559 14.7038C81.7559 15.1346 82.1056 15.4839 82.537 15.4839Z" stroke="#004990" stroke-width="2.5" stroke-linecap="round" stroke-linejoin="round"/>
<path d="M74.7167 15.4839C75.1482 15.4839 75.4979 15.1346 75.4979 14.7038C75.4979 14.2731 75.1482 13.9238 74.7167 13.9238C74.2853 13.9238 73.9355 14.2731 73.9355 14.7038C73.9355 15.1346 74.2853 15.4839 74.7167 15.4839Z" stroke="#004990" stroke-width="2.5" stroke-linecap="round" stroke-linejoin="round"/>
<path d="M67.6815 14.7038C67.6815 15.1353 67.3325 15.4839 66.9003 15.4839C66.4682 15.4839 66.1191 15.1353 66.1191 14.7038C66.1191 14.2723 66.4682 13.9238 66.9003 13.9238C67.3325 13.9238 67.6815 14.2723 67.6815 14.7038Z" stroke="#004990" stroke-width="2.5" stroke-linecap="round" stroke-linejoin="round"/>
<path d="M84.8824 22.1973V36.5861C84.8824 37.4491 84.1808 38.1503 83.3174 38.1503H73.9359C73.0725 38.1503 72.3709 37.4491 72.3709 36.5861V22.1973C66.4058 24.6576 62.209 30.5202 62.209 37.3661C62.209 44.212 66.4099 50.0788 72.3709 52.535V92.6313C72.3709 95.9588 74.8865 98.8673 78.2074 99.083C81.8521 99.3195 84.8782 96.4359 84.8782 92.847V52.535C90.8434 50.0746 95.0402 44.212 95.0402 37.3661C95.0402 30.5202 90.8392 24.6535 84.8782 22.1973H84.8824Z" fill="#26A851" stroke="#004990" stroke-width="2.5" stroke-linecap="round" stroke-linejoin="round"/>
<path d="M88.0118 63.9375H80.9715C79.2452 63.9375 77.8457 65.3363 77.8457 67.0617V87.3837C77.8457 89.1091 79.2452 90.5079 80.9715 90.5079H88.0118C89.7381 90.5079 91.1376 89.1091 91.1376 87.3837V67.0617C91.1376 65.3363 89.7381 63.9375 88.0118 63.9375Z" fill="#EFF1F3" stroke="#004990" stroke-width="2.5" stroke-linecap="round" stroke-linejoin="round"/>
<path d="M41.8809 64.6835H47.2732C49.3487 64.6835 51.3371 63.862 52.8024 62.3933C54.8199 60.3768 57.5555 59.2441 60.4073 59.2441H86.4431C87.3065 59.2441 88.0081 59.9453 88.0081 60.8083V61.5883C88.0081 65.0403 85.2061 67.8409 81.7523 67.8409H72.3708V90.503H60.4073C57.5555 90.503 54.8199 89.3703 52.8024 87.3538L52.7692 87.3207C51.3039 85.856 49.3155 85.0304 47.24 85.0304H42.6613" fill="#EFF1F3"/>
<path d="M41.8809 64.6835H47.2732C49.3487 64.6835 51.3371 63.862 52.8024 62.3933C54.8199 60.3768 57.5555 59.2441 60.4073 59.2441H86.4431C87.3065 59.2441 88.0081 59.9453 88.0081 60.8083V61.5883C88.0081 65.0403 85.2061 67.8409 81.7523 67.8409H72.3708V90.503H60.4073C57.5555 90.503 54.8199 89.3703 52.8024 87.3538L52.7692 87.3207C51.3039 85.856 49.3155 85.0304 47.24 85.0304H42.6613" stroke="#004990" stroke-width="2.5" stroke-linecap="round" stroke-linejoin="round"/>
<path d="M1.22461 90.503H40.3157C41.1791 90.503 41.8806 89.8018 41.8806 88.9388V60.8083C41.8806 59.9453 41.1791 59.2441 40.3157 59.2441H1.22461" fill="#C5C9CC"/>
<path d="M1.22461 90.503H40.3157C41.1791 90.503 41.8806 89.8018 41.8806 88.9388V60.8083C41.8806 59.9453 41.1791 59.2441 40.3157 59.2441H1.22461" stroke="#004990" stroke-width="2.5" stroke-linecap="round" stroke-linejoin="round"/>
<path d="M72.3703 67.8418C72.3703 73.0198 68.1694 77.2186 62.9888 77.2186C60.797 77.2186 58.7796 76.4676 57.1855 75.2063" fill="#EFF1F3"/>
<path d="M72.3703 67.8418C72.3703 73.0198 68.1694 77.2186 62.9888 77.2186C60.797 77.2186 58.7796 76.4676 57.1855 75.2063" stroke="#004990" stroke-width="2.5" stroke-linecap="round" stroke-linejoin="round"/>
<path d="M105.139 190.465V196.24C105.139 197.643 106.277 198.779 107.68 198.779H121.644C123.047 198.779 124.185 197.643 124.185 196.24V182.577C130.216 178.204 134.816 172.404 137.315 165.782H144.5C145.903 165.782 147.041 164.645 147.041 163.243V145.477C147.041 144.074 145.903 142.938 144.5 142.938H137.323C134.828 136.32 130.212 130.536 124.185 126.163V110.002C124.185 107.899 121.773 106.708 120.104 107.986L106.339 118.504C103.296 117.902 100.141 117.554 96.8868 117.554C73.3957 117.554 54.3545 134.03 54.3545 154.356C54.3545 165.687 60.2781 175.823 69.5891 182.573V196.236C69.5891 197.638 70.7265 198.775 72.1296 198.775H86.0939C87.497 198.775 88.6344 197.638 88.6344 196.236V190.461" fill="#26A851"/>
<path d="M105.139 190.465V196.24C105.139 197.643 106.277 198.779 107.68 198.779H121.644C123.047 198.779 124.185 197.643 124.185 196.24V182.577C130.216 178.204 134.816 172.404 137.315 165.782H144.5C145.903 165.782 147.041 164.645 147.041 163.243V145.477C147.041 144.074 145.903 142.938 144.5 142.938H137.323C134.828 136.32 130.212 130.536 124.185 126.163V110.002C124.185 107.899 121.773 106.708 120.104 107.986L106.339 118.504C103.296 117.902 100.141 117.554 96.8868 117.554C73.3957 117.554 54.3545 134.03 54.3545 154.356C54.3545 165.687 60.2781 175.823 69.5891 182.573V196.236C69.5891 197.638 70.7265 198.775 72.1296 198.775H86.0939C87.497 198.775 88.6344 197.638 88.6344 196.236V190.461" stroke="#004990" stroke-width="2.5" stroke-linecap="round" stroke-linejoin="round"/>
<path d="M114.662 187.805C109.254 189.962 103.23 191.161 96.8874 191.161C90.5445 191.161 84.5212 189.958 79.1123 187.805" stroke="#004990" stroke-width="2.5" stroke-linecap="round" stroke-linejoin="round"/>
<path d="M55.8201 144.748C55.8201 144.748 52.4121 146.308 48.0077 145.478C41.7686 144.3 35.7578 137.271 38.0783 128.202C40.2825 119.597 52.5823 122.742 50.378 131.347C46.6005 146.101 30.2949 143.242 30.2949 143.242" stroke="#004990" stroke-width="2.5" stroke-linecap="round" stroke-linejoin="round"/>
<path d="M121.644 142.938C121.644 143.639 121.075 144.207 120.374 144.207C119.672 144.207 119.104 143.639 119.104 142.938C119.104 142.236 119.672 141.668 120.374 141.668C121.075 141.668 121.644 142.236 121.644 142.938Z" stroke="#004990" stroke-width="2.5" stroke-linecap="round" stroke-linejoin="round"/>
<path d="M86.0195 161.973V163.243C86.0195 166.048 88.2943 168.317 91.0963 168.317H98.7136C101.52 168.317 103.79 166.043 103.79 163.243V159.434C103.79 156.629 101.516 154.36 98.7136 154.36H91.0963C88.2902 154.36 86.0195 152.086 86.0195 149.285V145.477C86.0195 142.672 88.2943 140.402 91.0963 140.402H98.7136C101.52 140.402 103.79 142.676 103.79 145.477V146.746" stroke="#004990" stroke-width="2.5" stroke-linecap="round" stroke-linejoin="round"/>
<path d="M94.9072 140.336V135.324" stroke="#004990" stroke-width="2.5" stroke-linecap="round" stroke-linejoin="round"/>
<path d="M94.9072 173.397V168.322" stroke="#004990" stroke-width="2.5" stroke-linecap="round" stroke-linejoin="round"/>
<path d="M206.24 58.3477C203.783 76.9063 192.919 93.5066 176.527 103.145L166.659 108.945L164.447 110.248L152.367 103.145C133.629 92.1291 122.122 72.0229 122.122 50.2861V32.3955C122.122 30.5201 123.114 28.7858 124.729 27.8357L161.765 6.05744C163.422 5.08242 165.476 5.08242 167.133 6.05744L204.169 27.8357C205.784 28.7858 206.776 30.5201 206.776 32.3955V50.2861C206.776 53.0701 206.589 55.8375 206.211 58.5552L206.244 58.3477H206.24Z" fill="#C5C9CC" stroke="#004990" stroke-width="2.5" stroke-linecap="round" stroke-linejoin="round"/>
<path d="M164.442 27.3965V87.3334" stroke="#004990" stroke-width="2.5" stroke-linecap="round" stroke-linejoin="round"/>
</g>
<defs>
<clipPath id="clip0_3398_5768">
<rect width="208" height="200" fill="white"/>
</clipPath>
</defs>
</svg>
