<svg width="201" height="200" viewBox="0 0 201 200" fill="none" xmlns="http://www.w3.org/2000/svg">
<g clip-path="url(#clip0_3413_7713)">
<path d="M165.07 155.248C195.05 125.256 195.05 76.6303 165.07 46.6386C135.09 16.647 86.4827 16.647 56.5026 46.6386C26.5224 76.6303 26.5225 125.256 56.5026 155.248C86.4827 185.24 135.09 185.24 165.07 155.248Z" fill="#016273" fill-opacity="0.25"/>
<path d="M175.577 138.912H189.666C191.281 138.912 192.592 140.223 192.592 141.839V178.417C192.592 180.033 191.281 181.344 189.666 181.344H175.577" fill="#26A851"/>
<path d="M175.577 138.912H189.666C191.281 138.912 192.592 140.223 192.592 141.839V178.417C192.592 180.033 191.281 181.344 189.666 181.344H175.577" stroke="#004990" stroke-width="2" stroke-linecap="round" stroke-linejoin="round"/>
<path d="M173.201 187.548C188.338 172.405 188.338 147.853 173.201 132.71C158.064 117.567 133.521 117.567 118.384 132.71C103.247 147.853 103.247 172.405 118.384 187.548C133.521 202.691 158.064 202.691 173.201 187.548Z" fill="#26A851" stroke="#004990" stroke-width="2" stroke-linecap="round" stroke-linejoin="round"/>
<path d="M166.994 181.338C178.703 169.625 178.703 150.633 166.994 138.92C155.285 127.206 136.301 127.206 124.592 138.92C112.883 150.633 112.883 169.625 124.592 181.338C136.301 193.052 155.285 193.052 166.994 181.338Z" fill="white" stroke="#004990" stroke-width="2" stroke-linecap="round" stroke-linejoin="round"/>
<path d="M145.791 154.278C145.791 154.278 144.833 138.642 162.554 135.258" stroke="#004990" stroke-width="2" stroke-linecap="round" stroke-linejoin="round"/>
<path d="M140.722 157.2C140.722 157.2 126.704 150.212 132.638 133.168" stroke="#004990" stroke-width="2" stroke-linecap="round" stroke-linejoin="round"/>
<path d="M140.723 163.054C140.723 163.054 127.666 171.703 115.876 158.043" stroke="#004990" stroke-width="2" stroke-linecap="round" stroke-linejoin="round"/>
<path d="M145.792 165.982C145.792 165.982 146.75 181.619 129.029 185.003" stroke="#004990" stroke-width="2" stroke-linecap="round" stroke-linejoin="round"/>
<path d="M150.856 163.055C150.856 163.055 164.875 170.042 158.941 187.086" stroke="#004990" stroke-width="2" stroke-linecap="round" stroke-linejoin="round"/>
<path d="M150.856 157.2C150.856 157.2 163.913 148.552 175.703 162.211" stroke="#004990" stroke-width="2" stroke-linecap="round" stroke-linejoin="round"/>
<path d="M192.592 160.128C196.633 160.128 199.904 156.851 199.904 152.813V117.699C199.904 113.658 196.629 110.385 192.592 110.385H133.358" stroke="#004990" stroke-width="2" stroke-linecap="round" stroke-linejoin="round"/>
<path d="M126.046 117.696H117.271V103.062H126.046C130.087 103.062 133.358 106.339 133.358 110.377C133.358 114.419 130.083 117.692 126.046 117.692V117.696Z" fill="#C5C9CC" stroke="#004990" stroke-width="2" stroke-linecap="round" stroke-linejoin="round"/>
<path d="M117.268 105.994H109.225" stroke="#004990" stroke-width="2" stroke-linecap="round" stroke-linejoin="round"/>
<path d="M117.268 114.771H109.225" stroke="#004990" stroke-width="2" stroke-linecap="round" stroke-linejoin="round"/>
<path d="M153.051 161.833C153.999 157.818 151.513 153.794 147.499 152.846C143.485 151.898 139.463 154.385 138.515 158.401C137.568 162.417 140.054 166.44 144.068 167.388C148.082 168.336 152.104 165.849 153.051 161.833Z" fill="#C5C9CC" stroke="#004990" stroke-width="2" stroke-linecap="round" stroke-linejoin="round"/>
<path d="M44.1904 132.705C68.0054 132.705 87.3114 113.392 87.3114 89.5673C87.3114 65.7431 68.0054 46.4297 44.1904 46.4297C20.3753 46.4297 1.06934 65.7431 1.06934 89.5673C1.06934 113.392 20.3753 132.705 44.1904 132.705Z" fill="white"/>
<path d="M9.33886 64.0781C4.15483 71.2145 1.09863 79.9965 1.09863 89.4919C1.09863 113.39 20.4645 132.763 44.3533 132.763C51.3458 132.763 57.9521 131.103 63.7972 128.157" stroke="#004990" stroke-width="2" stroke-linecap="round" stroke-linejoin="round"/>
<path d="M77.9945 116.28C83.8952 108.884 87.6087 99.6932 87.6087 89.4921C87.6087 65.594 68.2429 46.2207 44.354 46.2207C36.6597 46.2207 29.4369 48.2305 23.1797 51.7522" stroke="#004990" stroke-width="2" stroke-linecap="round" stroke-linejoin="round"/>
<path d="M18.2632 55.1484L3.84375 58.5847L14.8282 69.5735L18.2632 55.1484Z" fill="#26A851" stroke="#004990" stroke-width="2" stroke-linecap="round" stroke-linejoin="round"/>
<path d="M69.0703 125.206L83.4898 121.774L72.5016 110.785L69.0703 125.206Z" fill="#26A851" stroke="#004990" stroke-width="2" stroke-linecap="round" stroke-linejoin="round"/>
<path d="M39.2513 88.0253C39.2513 88.0253 39.9828 87.8285 40.1908 87.7727C40.1351 87.5684 39.9383 86.8329 39.9383 86.8329C38.4306 81.2048 36.9489 74.8188 37.6322 68.8452C38.1632 64.2202 41.2491 59.8291 41.2491 59.8291L43.9971 55.0703L74.9156 72.9279L72.1676 77.6867C72.1676 77.6867 69.9098 82.557 66.1704 85.3283C61.3428 88.9058 55.0745 90.8152 49.4485 92.3235L48.509 92.5761L48.7615 93.516C50.2692 99.1441 51.7509 105.53 51.0676 111.504C50.5366 116.129 47.4507 120.52 47.4507 120.52L44.7027 125.279L13.7842 107.421L16.5322 102.662C16.5322 102.662 18.79 97.7919 22.5294 95.0205C27.357 91.4431 33.6253 89.5336 39.2513 88.0253Z" fill="#C5C9CC" stroke="#004990" stroke-width="2" stroke-linecap="round" stroke-linejoin="round"/>
<path d="M40.1348 61.6682L71.1832 79.5072C71.8257 78.4336 72.171 77.6906 72.171 77.6906L74.919 72.9318L44.0005 55.0742L41.2525 59.833C41.2525 59.833 40.7623 60.5314 40.1348 61.6682Z" fill="#26A851" stroke="#004990" stroke-width="2" stroke-linecap="round" stroke-linejoin="round"/>
<path d="M17.5239 100.846L48.5723 118.688C47.9485 119.822 47.4546 120.524 47.4546 120.524L44.7066 125.282L13.7881 107.425L16.5361 102.666C16.5361 102.666 16.8814 101.923 17.5239 100.849V100.846Z" fill="#26A851" stroke="#004990" stroke-width="2" stroke-linecap="round" stroke-linejoin="round"/>
<path d="M142.026 76.0234H113.272V80.1321H142.026V76.0234Z" fill="white"/>
<path d="M142.026 67.8047H113.272V73.9677H142.026V67.8047Z" fill="white"/>
<path d="M142.026 59.584H113.272V65.7507H142.026V59.584Z" fill="white"/>
<path d="M142.026 51.3672H113.272V57.5302H142.026V51.3672Z" fill="white"/>
<path d="M178.998 51.3672H164.619V80.1318H178.998V51.3672Z" fill="#26A851"/>
<path d="M148.187 31.2344V80.1301H144.08V50.3402C144.08 49.7718 143.623 49.3149 143.055 49.3149H112.248C111.68 49.3149 111.223 49.7718 111.223 50.3402V80.1301H107.112V45.5294L148.191 31.2344H148.187Z" fill="#C5C9CC"/>
<path d="M195.426 27.3948V80.1318H181.051V50.3418C181.051 49.7735 180.594 49.3165 180.026 49.3165H163.594C163.026 49.3165 162.569 49.7735 162.569 50.3418V80.1318H150.244V5.63281L195.43 27.3948H195.426ZM178.998 31.849C178.998 27.8852 175.771 24.6606 171.805 24.6606C167.839 24.6606 164.619 27.8889 164.619 31.849C164.619 35.8091 167.846 39.0373 171.805 39.0373C175.763 39.0373 178.998 35.8091 178.998 31.849Z" fill="#C5C9CC"/>
<path d="M197.483 28.3864V81.1605C197.483 81.7289 197.019 82.1858 196.451 82.1858H180.022C180.591 82.1858 181.047 81.7289 181.047 81.1605V80.1352H195.422V27.3945L197.48 28.3864H197.483Z" fill="#004990"/>
<path d="M197.483 26.7519V28.3864L195.426 27.3946V26.7519C195.426 26.1835 195.89 25.7266 196.451 25.7266C196.596 25.7266 196.729 25.7526 196.852 25.8083C197.223 25.9606 197.483 26.3247 197.483 26.7519Z" fill="#004990"/>
<path d="M196.853 25.8047L198.954 26.8151C199.467 27.0603 199.679 27.6733 199.437 28.1822C199.255 28.55 198.891 28.7655 198.509 28.7655C198.36 28.7655 198.212 28.7358 198.067 28.6652L197.488 28.3866V26.752C197.488 26.3248 197.228 25.9607 196.856 25.8084L196.853 25.8047Z" fill="#004990"/>
<path d="M181.051 80.1309V81.1562C181.051 81.7246 180.595 82.1815 180.026 82.1815H163.594C163.026 82.1815 162.569 81.7246 162.569 81.1562V80.1309H181.055H181.051Z" fill="#004990"/>
<path d="M181.051 50.3417V80.1316H178.998V51.367H164.619V80.1316H162.565V50.3417C162.565 49.7733 163.022 49.3164 163.59 49.3164H180.023C180.591 49.3164 181.047 49.7733 181.047 50.3417H181.051Z" fill="#004990"/>
<path d="M171.805 24.6562C175.771 24.6562 178.998 27.8845 178.998 31.8446C178.998 35.8047 175.771 39.033 171.805 39.033C167.839 39.033 164.619 35.8047 164.619 31.8446C164.619 27.8845 167.846 24.6562 171.805 24.6562ZM176.944 31.8483C176.944 29.0176 174.638 26.7143 171.805 26.7143C168.971 26.7143 166.673 29.0213 166.673 31.8483C166.673 34.6754 168.979 36.9823 171.805 36.9823C174.631 36.9823 176.944 34.6754 176.944 31.8483Z" fill="#004990"/>
<path d="M162.566 81.1601C162.566 81.7285 163.022 82.1854 163.591 82.1854H149.212C149.78 82.1854 150.237 81.7285 150.237 81.1601V80.1348H162.562V81.1601H162.566Z" fill="#004990"/>
<path d="M149.75 3.10938L196.852 25.8001C196.729 25.7481 196.596 25.7221 196.451 25.7221C195.886 25.7221 195.426 26.179 195.426 26.7474V27.3901L150.24 5.62809V3.98238C150.24 3.61089 150.043 3.28398 149.75 3.10938Z" fill="#004990"/>
<path d="M150.24 80.1299V81.1552C150.24 81.7236 149.784 82.1805 149.215 82.1805C148.647 82.1805 148.19 81.7236 148.19 81.1552V31.2342L149.553 30.7587C149.98 30.6138 150.244 30.2126 150.244 29.7891V80.1262L150.24 80.1299Z" fill="#004990"/>
<path d="M150.24 3.98625V5.63196L148.187 4.6438V3.98625C148.187 3.41787 148.643 2.96094 149.211 2.96094C149.334 2.96094 149.445 2.97951 149.553 3.02038L149.75 3.11325C150.043 3.28785 150.24 3.61476 150.24 3.98625Z" fill="#004990"/>
<path d="M150.184 29.4562C150.225 29.5676 150.24 29.6791 150.24 29.7942C150.24 30.2177 149.976 30.6189 149.549 30.7638L148.187 31.2393V29.0624L148.877 28.8246C149.416 28.6389 149.999 28.9212 150.184 29.4599V29.4562Z" fill="#004990"/>
<path d="M149.751 3.1085L149.554 3.01562C149.624 3.03791 149.687 3.07135 149.751 3.1085Z" fill="#004990"/>
<path d="M149.215 24.6568C148.647 24.6568 148.19 25.1137 148.19 25.6821V4.64453L150.244 5.6327V25.6858C150.244 25.1174 149.787 24.6605 149.219 24.6605L149.215 24.6568Z" fill="#004990"/>
<path d="M150.184 29.4559C149.995 28.9173 149.412 28.6349 148.877 28.8207L148.187 29.0584V25.6816C148.187 25.1132 148.643 24.6562 149.211 24.6562C149.78 24.6562 150.236 25.1132 150.236 25.6816V29.7903C150.236 29.6751 150.222 29.5637 150.181 29.4522L150.184 29.4559Z" fill="#004990"/>
<path d="M143.501 0.100718L149.554 3.01693C149.45 2.97606 149.335 2.95749 149.212 2.95749C148.644 2.95749 148.187 3.41442 148.187 3.98281V4.64035L142.606 1.95075C142.097 1.70556 141.882 1.08889 142.127 0.579942C142.372 0.0709987 142.984 -0.144466 143.497 0.0970031L143.501 0.100718Z" fill="#004990"/>
<path d="M148.187 81.1601C148.187 81.7285 148.643 82.1854 149.211 82.1854H143.051C143.619 82.1854 144.076 81.7285 144.076 81.1601V80.1348H148.183V81.1601H148.187Z" fill="#004990"/>
<path d="M144.08 80.1309V81.1562C144.08 81.7246 143.623 82.1815 143.055 82.1815H112.248C111.679 82.1815 111.223 81.7246 111.223 81.1562V80.1309H144.083H144.08Z" fill="#004990"/>
<path d="M143.055 57.5311C143.623 57.5311 144.08 57.988 144.08 58.5564C144.08 59.1248 143.623 59.5817 143.055 59.5817H142.03V57.5273H143.055V57.5311Z" fill="#004990"/>
<path d="M143.055 65.7498C143.623 65.7498 144.08 66.2067 144.08 66.7751C144.08 67.3435 143.623 67.8004 143.055 67.8004H142.03V65.7461H143.055V65.7498Z" fill="#004990"/>
<path d="M143.055 73.9686C143.623 73.9686 144.08 74.4255 144.08 74.9939C144.08 75.5623 143.623 76.0192 143.055 76.0192H142.03V73.9648H143.055V73.9686Z" fill="#004990"/>
<path d="M142.026 59.5839H143.051C143.619 59.5839 144.076 59.127 144.076 58.5586V66.7797C144.076 66.2113 143.619 65.7544 143.051 65.7544H142.026V59.5876V59.5839Z" fill="#004990"/>
<path d="M142.026 67.8046H143.051C143.619 67.8046 144.076 67.3477 144.076 66.7793V74.9967C144.076 74.4283 143.619 73.9714 143.051 73.9714H142.026V67.8083V67.8046Z" fill="#004990"/>
<path d="M142.026 76.0234H143.051C143.619 76.0234 144.076 75.5664 144.076 74.998V80.1321H142.022V76.0234H142.026Z" fill="#004990"/>
<path d="M142.026 73.9688H113.272V76.0231H142.026V73.9688Z" fill="#004990"/>
<path d="M142.026 65.75H113.272V67.8043H142.026V65.75Z" fill="#004990"/>
<path d="M142.026 57.5293H113.272V59.5836H142.026V57.5293Z" fill="#004990"/>
<path d="M113.272 73.9688V76.0231H112.248C111.679 76.0231 111.223 75.5662 111.223 74.9978C111.223 74.4294 111.679 73.9725 112.248 73.9725H113.272V73.9688Z" fill="#004990"/>
<path d="M113.272 65.75V67.8043H112.248C111.679 67.8043 111.223 67.3474 111.223 66.779C111.223 66.2106 111.679 65.7537 112.248 65.7537H113.272V65.75Z" fill="#004990"/>
<path d="M113.272 57.5293V59.5836H112.248C111.679 59.5836 111.223 59.1267 111.223 58.5583C111.223 57.9899 111.679 57.533 112.248 57.533H113.272V57.5293Z" fill="#004990"/>
<path d="M112.248 57.5299C111.679 57.5299 111.223 57.9868 111.223 58.5552V50.3378C111.223 49.7694 111.679 49.3125 112.248 49.3125H143.055C143.623 49.3125 144.08 49.7694 144.08 50.3378V58.5552C144.08 57.9868 143.623 57.5299 143.055 57.5299H142.03V51.3668H113.276V57.5299H112.251H112.248Z" fill="#004990"/>
<path d="M112.248 65.7505C111.679 65.7505 111.223 66.2074 111.223 66.7758V58.5547C111.223 59.1231 111.679 59.58 112.248 59.58H113.272V65.7468H112.248V65.7505Z" fill="#004990"/>
<path d="M112.248 73.9694C111.679 73.9694 111.223 74.4264 111.223 74.9947V66.7773C111.223 67.3457 111.679 67.8027 112.248 67.8027H113.272V73.9657H112.248V73.9694Z" fill="#004990"/>
<path d="M112.247 76.0214H113.272V80.1301H111.219V74.9961C111.219 75.5645 111.676 76.0214 112.244 76.0214H112.247Z" fill="#004990"/>
<path d="M111.219 81.161C111.219 81.7294 111.676 82.1863 112.244 82.1863H106.08C105.511 82.1863 105.055 81.7294 105.055 81.161V46.2482L107.108 45.5312V80.132H111.219V81.1573V81.161Z" fill="#004990"/>
<path d="M107.108 44.7947V45.5302L105.055 46.2472V44.7909C105.055 44.3749 105.296 44.022 105.649 43.8622L105.872 43.7842C105.939 43.7731 106.009 43.7656 106.08 43.7656C106.648 43.7656 107.105 44.2226 107.105 44.7909L107.108 44.7947Z" fill="#004990"/>
<path d="M105.875 43.7845L148.186 29.0586V31.2355L107.108 45.5305V44.795C107.108 44.2266 106.651 43.7697 106.083 43.7697C106.012 43.7697 105.942 43.7771 105.875 43.7882V43.7845Z" fill="#004990"/>
<path d="M105.875 43.7852L105.652 43.8632C105.723 43.8297 105.797 43.8 105.875 43.7852Z" fill="#004990"/>
<path d="M105.055 44.794V46.2502L102.31 47.2012C102.199 47.2421 102.088 47.2607 101.972 47.2607C101.549 47.2607 101.148 46.9932 101.003 46.5697C100.814 46.031 101.096 45.4478 101.635 45.262L105.649 43.8652C105.296 44.025 105.055 44.3779 105.055 44.794Z" fill="#004990"/>
</g>
<defs>
<clipPath id="clip0_3413_7713">
<rect width="201" height="200" fill="white"/>
</clipPath>
</defs>
</svg>
